<?xml version="1.0" encoding="UTF-8" ?>
<!DOCTYPE svg PUBLIC "-//W3C//DTD SVG 1.1//EN" "http://www.w3.org/Graphics/SVG/1.1/DTD/svg11.dtd">
<svg width="745pt" height="1343pt" viewBox="0 0 745 1343" version="1.1" xmlns="http://www.w3.org/2000/svg">
<path fill="#000000" d=" M 364.90 0.00 L 379.59 0.00 C 399.28 1.75 416.45 13.27 430.87 26.06 C 463.66 56.01 484.14 96.93 497.47 138.73 C 517.89 142.55 538.59 146.59 557.48 155.57 C 564.92 159.27 572.47 163.78 577.00 170.99 C 580.86 176.98 580.92 185.11 577.23 191.18 C 574.25 196.24 569.50 199.86 564.72 203.08 C 573.43 213.65 578.70 227.21 578.34 240.99 C 578.45 243.21 577.75 245.76 579.32 247.64 C 584.12 254.57 588.65 261.69 593.14 268.83 C 595.02 272.01 598.69 273.28 601.60 275.29 C 618.63 286.07 634.65 298.83 647.43 314.51 C 658.24 327.59 666.75 342.75 671.19 359.18 C 676.45 377.89 676.38 397.89 672.01 416.76 C 671.66 418.39 671.12 420.13 672.00 421.71 C 686.88 457.15 700.12 493.34 710.20 530.45 C 717.00 555.85 722.47 581.73 724.20 608.01 C 724.04 622.39 718.71 636.56 709.66 647.70 C 700.13 659.67 686.33 667.55 671.92 672.18 C 659.25 676.40 645.76 681.13 632.27 678.25 C 621.20 676.01 612.23 667.82 606.90 658.13 C 596.83 640.22 594.31 619.51 589.75 599.80 C 584.87 576.83 579.48 553.99 574.02 531.16 C 547.97 545.38 520.03 555.85 491.36 563.39 C 498.43 599.74 506.68 635.87 514.75 672.02 C 517.31 682.96 519.63 693.97 522.46 704.85 C 540.44 700.44 559.46 698.98 577.61 703.36 C 610.65 711.48 640.60 732.29 658.99 761.02 C 659.76 761.88 660.34 763.43 661.81 763.18 C 677.77 763.66 692.82 770.38 705.98 779.05 C 714.48 784.69 722.43 791.14 729.95 798.01 C 736.98 804.73 742.93 813.18 744.49 822.97 C 747.18 838.08 734.10 854.60 718.32 853.52 C 714.80 861.13 707.27 866.57 698.92 867.42 C 691.09 868.51 683.36 864.45 678.55 858.44 C 670.89 848.96 666.76 836.94 665.73 824.88 C 665.23 830.63 664.96 836.46 663.22 842.01 C 658.79 857.60 645.05 870.45 628.88 872.83 C 621.39 874.12 612.84 872.16 607.83 866.13 C 603.06 860.39 600.09 852.55 601.91 845.10 C 603.82 837.94 609.39 832.75 613.85 827.14 C 608.19 819.17 600.56 811.31 600.35 800.94 C 600.07 795.66 603.17 791.26 605.76 786.98 C 599.46 775.95 590.97 765.94 580.45 758.69 C 566.68 749.24 549.28 747.07 532.98 748.62 C 541.25 782.97 550.59 817.05 560.20 851.04 C 568.94 882.68 578.01 914.38 582.34 946.99 C 588.06 994.77 582.81 1043.16 572.96 1090.04 C 562.88 1137.63 550.36 1184.66 540.51 1232.30 C 564.54 1233.00 588.88 1235.88 611.46 1244.51 C 624.47 1249.60 637.16 1257.09 645.44 1268.62 C 653.20 1279.07 656.04 1292.79 653.90 1305.55 C 652.94 1311.26 649.67 1316.65 644.55 1319.54 C 636.88 1323.99 627.67 1324.21 619.04 1324.39 C 578.36 1324.36 537.68 1324.39 497.00 1324.37 C 489.10 1324.21 480.38 1322.08 475.40 1315.45 C 472.27 1311.15 471.17 1305.48 472.33 1300.31 C 476.20 1274.05 472.01 1246.62 460.23 1222.81 C 445.10 1192.30 418.14 1168.92 388.00 1153.87 C 378.69 1153.28 369.32 1153.81 359.99 1153.61 C 356.57 1153.19 353.73 1155.30 350.88 1156.81 C 335.80 1165.13 321.72 1175.35 309.60 1187.60 C 296.87 1200.68 286.46 1216.12 279.87 1233.18 C 271.60 1254.64 268.77 1278.29 272.40 1301.05 C 273.27 1306.65 272.03 1312.77 268.01 1316.95 C 262.70 1322.65 254.50 1324.21 247.03 1324.38 C 205.37 1324.35 163.70 1324.42 122.03 1324.35 C 113.57 1323.94 104.27 1323.27 97.49 1317.61 C 91.47 1312.67 89.85 1304.39 90.13 1296.98 C 89.96 1284.62 94.92 1272.36 103.48 1263.48 C 114.29 1251.90 129.23 1245.24 144.17 1240.78 C 163.59 1235.09 183.85 1232.85 204.02 1232.30 C 195.67 1190.80 184.98 1149.82 175.71 1108.52 C 175.51 1107.22 174.94 1105.99 173.61 1105.60 C 151.76 1096.08 130.42 1085.06 111.16 1070.93 C 99.98 1062.59 89.24 1053.15 81.73 1041.27 C 76.00 1032.34 72.93 1021.33 75.13 1010.80 C 76.17 1004.80 79.51 998.96 85.00 996.03 C 92.91 991.66 102.52 993.11 110.80 995.61 C 127.99 1001.09 143.86 1009.91 160.82 1016.02 C 160.46 1003.68 159.42 991.32 160.19 978.99 C 160.33 937.61 171.72 897.46 182.57 857.87 C 192.78 821.60 202.81 785.28 211.71 748.67 C 196.22 747.11 179.78 748.99 166.33 757.33 C 154.55 764.43 145.90 775.49 138.63 786.96 C 142.20 791.53 145.09 797.15 144.21 803.14 C 143.01 811.47 137.52 818.22 132.54 824.67 C 131.86 825.65 130.57 827.08 131.71 828.24 C 135.69 833.26 140.61 837.90 142.46 844.23 C 144.88 851.32 142.03 858.97 137.91 864.82 C 133.33 871.42 124.65 873.98 116.95 873.00 C 100.73 871.11 86.71 858.64 81.81 843.23 C 79.67 837.20 79.54 830.78 79.10 824.48 C 77.84 836.55 73.94 848.64 66.30 858.22 C 61.31 864.50 53.16 868.77 45.01 867.31 C 36.83 866.32 29.83 860.77 26.21 853.49 C 12.90 854.47 1.63 842.60 0.00 830.00 L 0.00 823.75 C 1.38 813.83 7.27 805.17 14.40 798.40 C 21.59 791.54 29.42 785.36 37.62 779.76 C 51.40 770.48 67.34 763.27 84.22 763.15 C 102.76 733.13 133.66 711.30 167.92 703.16 C 185.84 699.00 204.55 700.55 222.28 704.85 C 233.39 657.86 243.65 610.67 253.49 563.41 C 224.79 555.86 196.73 545.53 170.74 531.12 C 166.22 549.15 162.11 567.29 158.03 585.43 C 154.40 601.28 151.49 617.29 147.51 633.05 C 143.78 646.50 138.82 660.56 128.20 670.18 C 120.80 676.76 110.64 679.88 100.82 679.06 C 89.41 678.11 78.49 674.32 67.82 670.40 C 53.22 665.13 39.84 655.71 31.28 642.62 C 23.24 630.49 19.07 615.54 20.97 601.01 C 22.37 585.90 24.96 570.93 28.16 556.11 C 38.56 509.36 54.82 464.13 73.35 420.04 C 69.67 405.09 68.35 389.46 70.44 374.17 C 73.11 352.33 82.98 331.79 96.89 314.90 C 110.49 298.40 127.38 284.82 145.60 273.74 C 147.62 272.43 150.00 271.41 151.24 269.23 C 156.14 261.42 161.17 253.69 166.35 246.06 C 165.13 230.63 169.98 214.93 179.94 203.06 C 175.00 199.81 170.12 196.06 167.21 190.78 C 163.76 184.93 163.88 177.27 167.36 171.46 C 171.54 164.61 178.50 160.05 185.48 156.41 C 199.67 149.30 215.17 145.30 230.61 141.93 C 236.39 140.60 242.35 140.06 248.02 138.27 C 246.22 136.65 244.48 134.91 242.39 133.66 C 237.56 132.89 232.64 132.81 227.83 131.90 C 198.88 127.30 171.85 112.44 151.97 90.97 C 135.00 72.75 122.67 50.42 114.85 26.86 C 151.30 25.81 187.24 42.60 211.21 69.80 C 225.99 86.14 236.81 105.73 244.73 126.20 C 245.47 128.54 247.73 129.76 249.54 131.19 C 262.72 93.50 281.55 56.72 310.73 28.88 C 325.79 14.87 343.86 2.04 364.90 0.00 Z" />
<path fill="#bbbf8a" d=" M 356.98 9.79 C 363.47 7.86 370.30 8.46 376.97 8.38 C 383.14 8.22 389.14 10.02 394.84 12.20 C 406.05 16.81 415.96 24.06 424.96 32.07 C 440.89 46.73 454.37 64.09 464.68 83.11 C 461.20 80.25 459.13 76.19 456.46 72.65 C 446.83 59.47 435.67 47.34 422.87 37.18 C 408.45 25.79 390.88 16.67 372.02 17.52 C 353.21 16.81 335.83 26.12 321.45 37.43 C 309.21 47.18 298.56 58.80 289.16 71.28 C 285.80 75.59 283.22 80.50 279.26 84.33 C 290.84 62.96 306.09 43.38 324.76 27.75 C 334.32 19.96 344.99 13.07 356.98 9.79 Z" />
<path fill="#87963b" d=" M 321.45 37.43 C 335.83 26.12 353.21 16.81 372.02 17.52 C 390.88 16.67 408.45 25.79 422.87 37.18 C 435.67 47.34 446.83 59.47 456.46 72.65 C 459.13 76.19 461.20 80.25 464.68 83.11 C 468.13 87.54 469.93 93.00 472.51 97.95 C 452.67 96.46 432.88 94.29 412.99 93.49 C 366.18 91.20 319.14 91.91 272.55 97.30 C 274.73 92.96 276.26 88.20 279.26 84.33 C 283.22 80.50 285.80 75.59 289.16 71.28 C 298.56 58.80 309.21 47.18 321.45 37.43 Z" />
<path fill="#d72f22" d=" M 125.47 34.43 C 150.46 35.72 174.54 46.36 193.40 62.61 C 210.62 77.55 223.84 96.78 232.92 117.61 C 219.84 106.46 206.54 95.58 193.53 84.34 C 188.90 80.30 184.38 76.07 179.13 72.82 C 169.70 66.76 160.08 60.95 150.01 56.00 C 177.40 78.96 204.81 101.89 232.15 124.92 C 226.14 124.79 220.31 123.23 214.56 121.62 C 188.45 114.13 165.38 97.52 148.97 76.00 C 139.18 63.36 131.53 49.19 125.47 34.43 Z" />
<path fill="#f7882e" d=" M 270.51 101.57 C 338.31 93.76 406.91 95.28 474.68 102.54 C 474.96 103.26 475.51 104.71 475.79 105.44 C 466.83 116.76 454.86 125.11 442.51 132.34 C 395.91 128.67 348.98 128.62 302.38 132.34 C 295.62 128.31 288.80 124.30 282.72 119.27 C 277.56 115.22 273.09 110.42 268.51 105.74 C 269.17 104.35 269.83 102.95 270.51 101.57 Z" />
<path fill="#e36626" d=" M 475.79 105.44 L 476.00 105.19 C 480.55 115.76 484.76 126.49 488.36 137.42 C 473.17 135.03 457.84 133.44 442.51 132.34 C 454.86 125.11 466.83 116.76 475.79 105.44 Z" />
<path fill="#e36626" d=" M 268.51 105.74 C 273.09 110.42 277.56 115.22 282.72 119.27 C 288.80 124.30 295.62 128.31 302.38 132.34 C 286.96 133.38 271.56 135.05 256.28 137.43 C 259.90 126.70 263.86 116.07 268.51 105.74 Z" />
<path fill="#87963b" d=" M 251.34 147.57 C 296.49 140.38 342.31 138.30 387.97 138.85 C 428.82 139.87 469.81 142.55 509.94 150.63 C 524.24 153.61 538.52 157.22 551.94 163.09 C 558.00 165.93 564.24 169.18 568.41 174.59 C 571.03 177.87 571.60 182.79 569.38 186.43 C 566.82 190.96 562.29 193.78 558.02 196.48 C 550.48 190.38 541.56 185.84 531.96 184.12 C 529.36 183.59 526.44 183.63 524.42 181.67 C 514.92 173.84 503.52 167.74 491.12 166.44 C 487.44 165.97 483.73 166.45 480.05 166.17 C 477.74 165.12 475.70 163.59 473.59 162.22 C 494.21 163.68 514.65 166.85 535.12 169.58 C 491.25 155.05 445.02 148.66 398.96 146.64 C 335.80 144.27 272.37 152.19 211.60 169.46 C 231.25 166.78 250.89 163.81 270.69 162.46 C 268.60 163.84 266.48 165.15 264.32 166.42 C 249.29 164.72 234.35 170.51 222.69 179.73 C 220.63 181.23 218.79 183.42 216.07 183.56 C 205.25 184.87 195.10 189.63 186.66 196.43 C 181.82 193.51 176.54 190.18 174.46 184.64 C 172.77 180.45 174.77 175.78 177.81 172.77 C 184.09 166.42 192.58 162.98 200.78 159.84 C 217.14 153.96 234.24 150.46 251.34 147.57 Z" />
<path fill="#954522" d=" M 300.27 160.16 C 316.12 158.59 332.10 158.60 348.01 157.78 C 379.84 157.34 411.74 157.51 443.48 159.86 C 459.80 165.13 474.96 173.92 487.93 185.12 C 489.76 186.68 491.42 188.45 493.02 190.25 C 476.26 199.39 465.13 217.27 463.47 236.20 C 456.56 223.60 448.28 211.52 437.55 201.87 C 451.58 220.31 460.76 241.87 468.29 263.64 C 481.77 303.68 489.89 345.29 496.09 387.01 C 498.12 401.32 500.11 415.65 501.49 430.05 C 491.26 417.78 478.03 408.33 463.89 401.07 C 448.15 393.16 431.22 387.73 413.91 384.56 C 385.21 379.25 355.49 379.47 326.88 385.31 C 302.77 390.33 279.09 399.41 259.44 414.50 C 253.47 419.01 248.24 424.40 243.28 429.97 C 246.65 396.08 251.92 362.37 258.88 329.04 C 265.87 296.45 274.46 263.95 288.39 233.57 C 293.54 222.39 299.70 211.65 307.26 201.92 C 296.23 211.30 288.40 223.68 281.05 235.99 C 279.60 216.97 268.07 199.31 251.44 190.05 C 265.21 176.61 282.01 166.23 300.27 160.16 Z" />
<path fill="#954522" d=" M 235.71 184.29 C 239.09 180.23 244.83 179.13 249.70 177.73 C 247.00 180.16 244.59 182.91 241.84 185.28 C 239.85 185.98 237.71 184.55 235.71 184.29 Z" />
<path fill="#954522" d=" M 495.06 177.91 C 500.19 178.84 505.33 180.78 509.32 184.19 C 507.23 184.72 505.14 185.21 503.04 185.68 C 500.45 183.01 497.68 180.54 495.06 177.91 Z" />
<path fill="#fdfefe" d=" M 213.61 191.85 C 224.95 189.41 237.07 191.31 247.28 196.74 C 260.44 203.85 270.22 217.12 272.57 231.95 C 275.33 247.12 270.43 263.50 259.69 274.59 C 251.88 282.91 241.07 288.45 229.71 289.66 C 223.43 289.93 216.98 290.20 210.88 288.40 C 197.18 284.81 185.25 275.05 179.11 262.28 C 172.78 249.29 172.43 233.43 178.36 220.23 C 184.65 205.84 198.21 194.92 213.61 191.85 Z" />
<path fill="#fdfefe" d=" M 514.28 191.29 C 527.36 189.40 541.16 193.16 551.54 201.34 C 563.35 210.40 570.59 225.11 570.54 239.99 C 570.75 251.11 566.95 262.24 560.10 270.98 C 550.95 282.81 536.13 290.36 521.08 289.84 C 510.08 290.26 499.09 286.36 490.46 279.62 C 478.47 270.39 471.12 255.37 471.40 240.23 C 471.21 226.46 477.42 212.88 487.58 203.67 C 494.99 197.01 504.37 192.53 514.28 191.29 Z" />
<path fill="#000000" d=" M 231.76 233.76 C 232.59 233.76 233.43 233.77 234.27 233.77 C 236.66 234.59 239.25 235.72 240.27 238.23 C 242.53 242.22 240.24 247.59 236.08 249.21 C 233.18 250.03 229.76 249.74 227.56 247.49 C 225.14 245.31 224.85 241.70 225.71 238.74 C 226.82 236.21 229.25 234.67 231.76 233.76 Z" />
<path fill="#000000" d=" M 507.11 235.15 C 511.66 231.76 519.05 235.14 519.38 240.81 C 520.23 245.99 515.07 250.76 509.97 249.53 C 503.26 248.61 501.17 238.60 507.11 235.15 Z" />
<path fill="#753417" d=" M 570.28 270.22 C 572.66 271.29 575.03 272.40 577.38 273.55 C 574.00 283.50 569.45 293.35 561.72 300.70 C 550.59 311.85 534.79 318.27 519.00 317.46 C 509.38 317.44 500.21 314.12 491.71 309.89 C 489.94 301.58 486.63 293.68 484.91 285.37 C 500.98 298.57 524.34 301.53 543.42 293.52 C 554.49 288.76 564.06 280.56 570.28 270.22 Z" />
<path fill="#753417" d=" M 167.24 273.57 C 169.59 272.46 171.91 271.29 174.22 270.11 C 181.49 281.79 192.72 291.04 205.89 295.22 C 224.15 301.07 245.22 297.43 260.07 285.15 C 257.54 294.02 254.56 302.76 252.47 311.76 C 252.28 311.47 251.89 310.88 251.70 310.59 C 242.74 314.87 233.01 317.88 222.97 317.48 C 204.07 317.62 185.68 307.25 175.46 291.45 C 171.75 285.98 169.56 279.70 167.24 273.57 Z" />
<path fill="#954522" d=" M 92.70 339.70 C 109.39 310.12 137.65 289.09 167.24 273.57 C 169.56 279.70 171.75 285.98 175.46 291.45 C 185.68 307.25 204.07 317.62 222.97 317.48 C 233.01 317.88 242.74 314.87 251.70 310.59 C 251.89 310.88 252.28 311.47 252.47 311.76 C 247.14 331.28 243.19 351.15 239.46 371.02 C 225.19 362.39 212.20 351.84 198.12 342.90 C 189.05 337.28 178.90 332.39 167.98 332.58 C 152.94 333.09 138.48 342.36 131.89 355.93 C 125.28 369.07 125.07 384.57 128.26 398.69 C 133.49 421.14 146.87 440.91 163.29 456.76 C 180.78 473.66 201.93 486.41 224.21 495.93 C 228.21 498.27 233.83 498.40 236.61 502.37 C 243.71 514.65 254.60 524.12 265.89 532.44 C 251.31 530.09 237.18 525.48 223.20 520.82 C 189.43 509.13 157.05 492.48 129.57 469.47 C 115.78 457.93 103.39 444.65 93.38 429.69 C 89.52 424.09 86.55 417.94 82.63 412.38 C 80.93 408.12 80.83 403.42 80.32 398.91 C 78.24 378.52 82.70 357.57 92.70 339.70 Z" />
<path fill="#954522" d=" M 561.72 300.70 C 569.45 293.35 574.00 283.50 577.38 273.55 C 604.35 287.74 630.09 306.25 647.21 331.90 C 659.04 349.51 665.57 370.77 664.73 392.04 C 664.35 398.78 664.41 405.86 661.93 412.22 C 657.37 419.55 653.32 427.21 648.18 434.17 C 629.30 460.31 603.54 480.85 575.63 496.66 C 557.54 506.80 538.44 515.12 518.79 521.75 C 505.55 526.02 492.21 530.30 478.45 532.55 C 489.26 524.84 499.57 515.99 506.64 504.59 C 507.86 502.93 508.62 500.62 510.72 499.88 C 536.04 490.22 560.21 476.69 580.04 458.04 C 594.21 444.66 606.15 428.55 612.94 410.17 C 618.33 395.55 620.47 379.17 615.98 364.04 C 612.98 353.74 606.42 344.25 597.05 338.83 C 587.91 333.21 576.52 330.87 566.09 333.91 C 550.95 338.06 538.65 348.35 525.95 357.08 C 519.05 361.84 512.32 366.90 504.99 370.99 C 501.64 350.41 497.05 330.04 491.71 309.89 C 500.21 314.12 509.38 317.44 519.00 317.46 C 534.79 318.27 550.59 311.85 561.72 300.70 Z" />
<path fill="#fdfefe" d=" M 150.22 346.05 C 155.52 342.65 161.62 340.07 168.03 340.22 C 176.70 339.79 184.78 343.69 192.06 347.99 C 200.24 352.97 207.97 358.65 215.76 364.21 C 215.73 364.47 215.67 365.00 215.63 365.26 C 191.74 383.13 167.54 400.62 143.74 418.62 C 136.12 403.81 131.44 386.56 134.91 369.94 C 136.80 360.47 142.01 351.37 150.22 346.05 Z" />
<path fill="#fdfefe" d=" M 555.51 346.31 C 561.22 343.23 567.40 340.50 573.98 340.26 C 587.40 339.29 600.64 347.74 606.32 359.78 C 609.61 366.33 610.77 373.71 610.90 380.98 C 610.98 394.15 606.87 406.91 601.05 418.59 C 577.60 401.17 554.10 383.83 530.60 366.49 C 529.68 366.05 528.27 364.43 529.59 363.70 C 538.10 357.71 546.42 351.42 555.51 346.31 Z" />
<path fill="#fdfefe" d=" M 506.50 379.01 C 512.52 375.42 518.40 371.57 524.10 367.49 C 548.97 385.93 573.93 404.24 598.73 422.76 C 588.32 440.37 573.68 455.23 557.04 467.02 C 543.67 476.66 528.88 484.14 513.77 490.63 C 515.88 484.01 517.11 477.10 517.06 470.14 C 515.02 439.62 511.43 409.20 506.50 379.01 Z" />
<path fill="#fdfefe" d=" M 146.05 422.59 C 170.79 404.20 195.68 386.01 220.36 367.54 C 226.31 371.36 232.07 375.49 238.19 379.04 C 233.96 404.22 230.95 429.58 228.69 455.01 C 228.45 462.36 226.87 469.70 227.89 477.06 C 228.36 481.68 229.65 486.14 230.84 490.60 C 210.98 482.26 191.90 471.67 175.53 457.57 C 163.91 447.63 153.53 435.98 146.05 422.59 Z" />
<path fill="#753417" d=" M 648.18 434.17 C 653.32 427.21 657.37 419.55 661.93 412.22 C 661.33 418.95 658.79 425.30 656.50 431.60 C 645.47 459.41 624.92 482.38 601.50 500.49 C 572.08 523.10 537.76 538.66 502.35 549.26 C 463.02 560.82 421.94 566.20 380.98 565.69 C 360.00 565.72 338.96 566.04 318.07 563.79 C 273.57 559.47 229.47 548.35 189.18 528.74 C 155.80 512.35 124.39 489.84 102.93 459.02 C 93.41 444.93 85.55 429.25 82.63 412.38 C 86.55 417.94 89.52 424.09 93.38 429.69 C 103.39 444.65 115.78 457.93 129.57 469.47 C 157.05 492.48 189.43 509.13 223.20 520.82 C 237.18 525.48 251.31 530.09 265.89 532.44 C 291.12 548.88 320.84 557.56 350.69 560.36 C 387.45 563.72 425.48 558.82 459.19 543.32 C 465.92 540.30 472.25 536.50 478.45 532.55 C 492.21 530.30 505.55 526.02 518.79 521.75 C 538.44 515.12 557.54 506.80 575.63 496.66 C 603.54 480.85 629.30 460.31 648.18 434.17 Z" />
<path fill="#fdfefe" d=" M 307.69 422.67 C 324.73 416.50 342.92 414.09 360.95 413.31 C 366.31 413.40 371.66 412.41 377.02 413.07 C 398.15 413.61 419.65 415.89 439.48 423.66 C 446.82 426.85 455.26 430.88 458.17 438.93 C 460.06 446.11 453.94 451.94 448.34 455.24 C 432.76 464.23 414.58 467.13 396.96 469.15 C 384.72 470.14 372.39 470.88 360.13 469.94 C 342.53 469.19 324.80 466.77 308.15 460.82 C 300.92 458.05 293.39 454.69 288.51 448.42 C 285.13 444.34 285.58 437.98 289.08 434.12 C 293.91 428.48 300.92 425.32 307.69 422.67 Z" />
<path fill="#954522" d=" M 627.11 492.10 C 643.76 476.04 657.91 456.90 666.23 435.20 C 675.33 455.97 682.82 477.42 690.05 498.90 C 699.96 529.63 708.38 561.00 712.40 593.10 C 709.22 604.16 701.90 613.74 693.35 621.27 C 684.26 629.10 673.18 634.15 661.82 637.73 C 650.04 641.54 637.51 645.65 625.04 642.92 C 618.89 641.80 613.65 638.27 608.53 634.92 C 606.21 627.67 604.74 620.19 603.15 612.76 C 597.00 583.62 590.74 554.50 583.56 525.60 C 599.14 515.93 614.14 505.13 627.11 492.10 Z" />
<path fill="#954522" d=" M 76.74 438.67 C 77.04 437.78 78.21 434.72 79.01 437.00 C 94.85 474.96 126.13 504.42 160.87 525.32 C 158.16 538.62 154.65 551.76 151.84 565.04 C 147.53 583.95 143.64 602.95 139.54 621.90 C 138.41 626.22 137.82 630.75 135.96 634.85 C 130.08 639.21 123.38 642.89 115.96 643.56 C 103.35 644.91 91.16 640.45 79.38 636.56 C 64.66 631.68 50.61 623.33 41.37 610.61 C 37.07 604.48 32.04 597.82 32.65 589.89 C 40.02 537.68 57.25 487.46 76.74 438.67 Z" />
<path fill="#753417" d=" M 263.60 566.06 C 295.28 572.85 327.64 576.50 360.04 576.48 C 377.01 576.34 394.02 576.91 410.95 575.60 C 434.56 574.54 457.96 570.79 481.08 566.08 C 482.61 573.87 484.10 581.68 486.03 589.39 C 479.79 589.77 473.79 591.61 467.67 592.75 C 446.03 596.93 424.06 599.30 402.04 600.16 C 381.39 600.63 360.72 600.57 340.07 600.13 C 312.76 598.83 285.49 595.31 258.93 588.74 C 260.46 581.17 262.16 573.64 263.60 566.06 Z" />
<path fill="#954522" d=" M 246.42 646.09 C 250.67 626.99 254.62 607.82 258.93 588.74 C 285.49 595.31 312.76 598.83 340.07 600.13 C 360.72 600.57 381.39 600.63 402.04 600.16 C 424.06 599.30 446.03 596.93 467.67 592.75 C 473.79 591.61 479.79 589.77 486.03 589.39 C 489.10 604.24 492.35 619.05 495.56 633.87 C 496.39 637.91 497.70 641.90 497.90 646.05 C 495.36 648.81 491.97 650.62 489.31 653.25 C 477.19 664.66 468.89 679.53 463.05 694.98 C 456.17 713.65 452.28 733.32 450.18 753.06 C 434.84 742.13 416.45 736.31 397.96 733.60 C 376.98 730.60 355.45 731.20 334.74 735.82 C 320.49 739.08 306.47 744.32 294.63 753.06 C 291.86 730.44 287.47 707.74 278.24 686.78 C 271.28 670.85 260.81 656.11 246.42 646.09 Z" />
<path fill="#753417" d=" M 31.25 609.99 C 31.23 603.27 31.60 596.53 32.65 589.89 C 32.04 597.82 37.07 604.48 41.37 610.61 C 50.61 623.33 64.66 631.68 79.38 636.56 C 91.16 640.45 103.35 644.91 115.96 643.56 C 123.38 642.89 130.08 639.21 135.96 634.85 C 132.76 645.84 128.16 657.55 118.49 664.42 C 109.68 670.59 98.21 668.92 88.49 666.17 C 76.20 662.46 63.45 658.81 53.13 650.84 C 40.38 641.29 31.65 626.05 31.25 609.99 Z" />
<path fill="#753417" d=" M 712.40 593.10 C 712.82 599.74 714.15 606.38 713.29 613.05 C 711.86 626.44 705.23 639.17 695.03 647.97 C 685.43 656.63 673.00 661.02 660.87 664.79 C 651.31 667.64 640.74 670.63 630.99 666.92 C 623.35 664.18 618.15 657.37 614.61 650.36 C 612.06 645.43 610.22 640.19 608.53 634.92 C 613.65 638.27 618.89 641.80 625.04 642.92 C 637.51 645.65 650.04 641.54 661.82 637.73 C 673.18 634.15 684.26 629.10 693.35 621.27 C 701.90 613.74 709.22 604.16 712.40 593.10 Z" />
<path fill="#f7882e" d=" M 244.62 654.38 C 258.12 664.81 267.39 679.72 273.52 695.45 C 282.20 717.71 285.93 741.54 287.98 765.24 C 290.41 794.79 289.85 824.52 287.99 854.08 C 285.49 893.88 280.54 933.51 273.89 972.82 C 271.29 972.44 268.71 971.92 266.15 971.39 C 276.91 908.56 283.93 844.75 281.23 780.93 C 279.72 755.25 276.72 729.36 268.46 704.87 C 263.04 689.33 255.19 674.02 242.56 663.12 C 243.24 660.20 243.90 657.28 244.62 654.38 Z" />
<path fill="#f7882e" d=" M 475.21 686.16 C 481.18 674.15 488.99 662.45 500.18 654.75 C 500.85 657.52 501.46 660.30 501.98 663.11 C 487.59 675.87 479.30 693.93 473.94 712.07 C 465.61 740.57 463.49 770.43 462.78 799.97 C 462.34 857.44 468.69 914.79 478.55 971.36 C 475.95 971.88 473.35 972.37 470.75 972.83 C 462.24 921.63 456.12 869.91 455.24 817.99 C 454.96 794.19 455.43 770.33 458.68 746.72 C 461.51 725.96 466.10 705.15 475.21 686.16 Z" />
<path fill="#87963b" d=" M 241.10 669.27 C 252.77 680.30 259.53 695.40 264.43 710.44 C 274.17 741.96 276.18 775.22 276.66 808.01 C 276.58 862.36 270.67 916.60 261.09 970.08 C 255.76 969.29 250.50 968.09 245.36 966.50 C 252.47 926.65 256.98 886.34 259.38 845.94 C 261.05 809.98 261.42 773.67 255.32 738.07 C 252.15 721.00 247.59 703.70 237.78 689.14 C 236.69 687.73 237.48 685.97 237.69 684.43 C 238.87 679.38 240.09 674.35 241.10 669.27 Z" />
<path fill="#87963b" d=" M 490.80 685.78 C 494.36 679.92 498.12 673.96 503.52 669.62 C 504.98 675.73 506.37 681.87 507.71 688.02 C 497.30 702.66 492.66 720.43 489.40 737.85 C 483.77 769.88 483.71 802.56 484.75 834.96 C 486.84 879.05 491.51 923.06 499.36 966.51 C 494.22 968.12 488.90 969.07 483.68 970.38 C 477.58 937.48 473.29 904.25 470.58 870.91 C 469.03 850.98 468.00 830.99 468.16 811.00 C 468.00 787.60 469.34 764.16 473.06 741.04 C 476.34 721.95 481.16 702.75 490.80 685.78 Z" />
<path fill="#f7882e" d=" M 232.78 707.00 C 233.09 702.91 234.41 698.97 235.42 695.01 C 244.52 710.23 248.47 727.82 251.28 745.14 C 256.42 780.49 256.09 816.37 254.02 851.95 C 251.65 889.92 247.10 927.77 240.35 965.22 C 237.75 964.59 235.16 963.93 232.58 963.24 C 240.22 918.18 245.42 872.65 247.06 826.97 C 247.86 808.64 247.36 790.28 246.21 771.97 C 244.40 749.91 241.43 727.56 232.78 707.00 Z" />
<path fill="#f7882e" d=" M 490.81 767.14 C 493.22 742.40 496.63 716.79 509.21 694.88 C 510.09 699.17 512.20 703.48 511.52 707.91 C 503.34 727.58 500.46 748.91 498.60 769.99 C 495.59 811.33 498.14 852.85 502.46 894.00 C 504.87 917.17 508.30 940.22 511.92 963.24 C 509.41 963.90 506.91 964.92 504.27 964.82 C 499.13 937.11 495.57 909.10 492.86 881.05 C 489.47 843.21 487.89 805.07 490.81 767.14 Z" />
<path fill="#954522" d=" M 166.96 714.04 C 187.25 708.74 208.81 711.24 228.60 717.47 C 235.93 738.85 237.96 761.59 239.17 784.02 C 240.79 826.45 237.46 868.88 232.39 910.99 C 220.30 899.55 209.15 887.08 199.58 873.45 C 196.69 869.65 193.99 865.66 192.32 861.16 C 202.05 827.60 211.16 793.85 219.66 759.96 C 221.58 752.77 222.92 745.44 225.26 738.38 C 226.02 736.01 226.54 733.58 226.83 731.12 C 222.25 732.32 218.33 735.08 215.26 738.63 C 199.58 736.49 183.16 737.93 168.60 744.40 C 149.32 753.17 135.36 770.50 125.81 788.95 C 129.47 792.48 134.37 796.32 133.73 802.03 C 132.34 811.18 123.54 816.65 120.57 825.11 C 118.96 829.96 122.88 833.93 125.71 837.32 C 128.96 841.27 133.50 845.41 132.75 851.05 C 131.92 855.95 128.92 861.45 123.59 862.41 C 116.64 863.71 109.58 861.03 104.02 856.96 C 96.01 851.24 90.89 841.84 90.06 832.07 C 89.62 828.84 90.12 825.55 89.53 822.36 C 86.26 816.34 79.77 812.12 73.02 811.24 C 64.29 811.34 57.23 817.55 51.10 823.10 C 45.33 829.68 39.64 836.76 31.73 840.90 C 28.34 842.82 24.19 843.40 20.43 842.38 C 14.41 839.42 9.93 832.88 10.46 826.03 C 10.85 818.69 15.33 812.38 20.24 807.24 C 26.46 801.08 33.29 795.57 40.41 790.50 C 54.81 780.15 72.08 772.03 90.25 773.65 C 106.03 744.18 134.97 722.88 166.96 714.04 Z" />
<path fill="#954522" d=" M 515.87 717.66 C 535.21 711.28 556.39 708.86 576.35 713.73 C 608.94 722.20 638.36 743.86 654.43 773.66 C 667.33 772.53 680.14 776.30 691.40 782.42 C 701.94 788.20 711.54 795.56 720.53 803.50 C 727.32 809.62 733.99 817.38 734.29 826.99 C 734.25 835.55 726.29 845.14 717.06 842.55 C 709.65 840.38 704.03 834.60 698.87 829.14 C 692.38 821.60 684.86 813.93 674.88 811.47 C 666.58 810.30 658.61 816.04 654.59 822.99 C 655.42 832.12 653.84 841.80 648.25 849.28 C 642.27 857.39 632.48 863.73 622.08 862.59 C 615.64 861.92 611.68 854.95 611.80 848.98 C 613.13 840.81 621.89 836.72 624.31 829.06 C 625.16 823.78 621.14 819.59 618.28 815.67 C 614.96 811.29 611.24 806.68 610.66 801.03 C 611.10 795.82 615.30 792.25 618.96 789.04 C 610.34 772.68 598.63 757.20 582.45 747.72 C 566.53 738.31 547.30 736.33 529.22 738.52 C 526.32 734.79 522.22 732.19 517.59 731.26 C 526.03 763.00 533.58 795.00 542.57 826.61 C 545.90 838.64 549.32 850.64 552.63 862.68 C 543.56 875.73 534.38 888.86 522.95 899.99 C 519.50 903.25 516.64 907.51 511.94 909.07 C 508.11 874.49 504.78 839.76 505.25 804.93 C 505.14 775.60 506.92 745.78 515.87 717.66 Z" />
<path fill="#f7882e" d=" M 345.87 741.61 C 366.12 738.47 386.93 738.92 406.99 743.15 C 422.02 746.47 436.97 751.98 448.91 761.97 C 448.77 766.98 448.48 772.00 448.06 777.01 C 443.45 770.20 436.58 765.37 429.29 761.81 C 414.27 754.56 397.57 751.24 381.00 750.36 C 359.56 749.35 337.57 751.90 317.81 760.64 C 309.60 764.51 301.20 769.45 296.59 777.58 C 296.59 772.62 295.63 767.72 295.58 762.77 C 296.30 761.19 297.92 760.30 299.21 759.24 C 312.84 749.30 329.41 744.34 345.87 741.61 Z" />
<path fill="#87963b" d=" M 358.52 755.86 C 381.60 754.08 405.61 756.32 426.78 766.25 C 433.20 769.60 440.10 773.47 443.59 780.13 C 445.85 784.12 443.74 788.86 440.86 791.91 C 435.49 797.64 428.32 801.25 421.15 804.22 C 402.71 811.51 382.58 813.40 362.90 812.46 C 346.57 811.37 330.03 808.16 315.43 800.49 C 309.55 797.15 303.24 793.17 300.54 786.69 C 298.64 780.28 304.19 775.19 308.75 771.70 C 323.27 761.55 341.15 757.60 358.52 755.86 Z" />
<path fill="#000000" d=" M 330.10 768.98 C 336.52 766.30 343.70 766.17 350.50 767.12 C 356.70 767.95 362.89 769.50 368.38 772.55 C 377.68 777.59 384.64 785.91 393.72 791.27 C 397.92 793.78 403.66 794.83 407.91 791.89 C 411.19 789.73 414.04 785.61 412.44 781.59 C 410.10 778.60 405.24 778.34 402.42 780.82 C 401.35 778.69 401.14 775.93 403.55 774.66 C 409.41 771.58 418.32 776.04 418.46 783.02 C 418.87 793.16 407.73 801.32 398.11 798.75 C 387.95 796.46 380.93 788.13 372.88 782.17 C 363.30 774.10 350.24 771.10 337.95 772.41 C 334.12 772.95 330.06 774.42 327.73 777.68 C 324.69 781.48 328.37 787.69 333.01 787.64 C 335.15 787.70 337.70 786.51 338.00 784.16 C 337.19 782.87 335.62 782.49 334.38 781.80 C 336.86 777.06 344.26 779.91 343.41 785.03 C 342.54 792.28 333.19 794.79 327.44 791.62 C 322.83 789.14 320.31 783.40 321.56 778.33 C 322.59 774.01 326.23 770.82 330.10 768.98 Z" />
<path fill="#f7882e" d=" M 297.30 791.82 C 302.40 799.12 310.20 803.92 318.18 807.52 C 335.06 814.91 353.67 817.93 372.04 817.76 C 391.60 817.97 411.50 814.68 429.26 806.23 C 436.26 802.66 443.23 798.22 447.54 791.46 C 447.27 796.70 447.35 801.96 447.37 807.21 C 434.15 817.78 417.54 823.02 401.10 826.01 C 380.51 829.47 359.28 829.25 338.80 825.11 C 324.09 821.97 309.46 816.81 297.49 807.45 C 297.22 802.24 297.26 797.03 297.30 791.82 Z" />
<path fill="#954522" d=" M 297.35 816.93 C 314.74 828.34 335.45 833.57 355.96 835.47 C 387.20 837.99 420.38 834.03 447.36 817.03 C 448.14 859.60 452.24 902.07 458.40 944.19 C 440.78 951.20 421.98 955.10 403.07 956.25 C 387.04 956.81 371.00 956.38 354.97 956.52 C 335.39 956.77 315.72 954.06 297.07 948.03 C 293.49 946.86 289.89 945.73 286.27 944.68 C 292.28 902.34 296.53 859.71 297.35 816.93 Z" />
<path fill="#753417" d=" M 55.29 834.35 C 58.80 829.71 63.34 825.91 68.47 823.18 C 68.02 831.40 65.59 839.45 61.55 846.61 C 59.35 850.48 56.48 854.28 52.33 856.19 C 46.85 858.13 39.19 856.09 37.13 850.28 C 43.82 845.76 50.22 840.69 55.29 834.35 Z" />
<path fill="#753417" d=" M 676.35 822.98 C 685.48 827.88 690.70 837.12 698.51 843.59 C 701.40 846.19 704.71 848.27 708.07 850.22 C 705.85 854.17 701.65 857.14 696.97 856.82 C 691.63 857.45 687.49 853.23 684.74 849.20 C 679.68 841.43 676.51 832.29 676.35 822.98 Z" />
<path fill="#753417" d=" M 173.44 941.46 C 177.79 914.27 185.05 887.68 192.32 861.16 C 193.99 865.66 196.69 869.65 199.58 873.45 C 209.15 887.08 220.30 899.55 232.39 910.99 C 230.36 927.70 227.98 944.38 225.10 960.97 C 207.46 955.69 190.10 949.32 173.44 941.46 Z" />
<path fill="#753417" d=" M 552.63 862.68 C 558.03 881.62 563.10 900.67 567.19 919.94 C 568.55 927.20 570.34 934.40 570.96 941.78 C 554.23 949.20 537.11 955.80 519.55 960.97 C 516.50 943.75 514.21 926.41 511.94 909.07 C 516.64 907.51 519.50 903.25 522.95 899.99 C 534.38 888.86 543.56 875.73 552.63 862.68 Z" />
<path fill="#753417" d=" M 403.07 956.25 C 421.98 955.10 440.78 951.20 458.40 944.19 C 459.80 953.86 461.53 963.48 462.86 973.16 C 463.37 974.82 460.96 974.44 460.07 974.85 C 444.46 977.20 428.75 979.09 412.97 979.66 C 396.33 980.82 379.64 980.21 362.98 980.36 C 335.70 980.65 308.37 978.85 281.46 974.26 C 283.23 964.43 284.58 954.53 286.27 944.68 C 289.89 945.73 293.49 946.86 297.07 948.03 C 315.72 954.06 335.39 956.77 354.97 956.52 C 371.00 956.38 387.04 956.81 403.07 956.25 Z" />
<path fill="#87963b" d=" M 172.54 949.74 C 217.60 969.63 265.95 982.01 315.02 986.32 C 345.66 988.77 376.46 988.48 407.16 987.70 C 462.43 985.67 517.34 973.35 568.13 951.44 C 569.48 950.88 570.86 950.41 572.25 949.94 C 573.02 958.27 574.00 966.59 573.82 974.98 C 526.35 996.66 475.07 1010.06 423.00 1013.78 C 403.02 1015.44 382.96 1015.11 362.93 1015.10 C 303.36 1015.94 243.54 1005.17 188.38 982.52 C 182.41 980.16 176.63 977.36 170.68 974.98 C 170.75 966.54 171.53 958.11 172.54 949.74 Z" />
<path fill="#87963b" d=" M 170.41 980.78 C 225.19 1005.62 285.06 1019.23 345.20 1020.29 C 345.24 1053.80 345.21 1087.31 345.22 1120.83 C 323.51 1119.95 301.85 1116.47 281.16 1109.79 C 257.55 1102.18 235.25 1089.92 217.13 1072.88 C 198.18 1055.29 183.89 1032.84 175.51 1008.41 C 173.94 1003.34 172.46 998.25 170.64 993.27 C 170.12 989.13 170.47 984.93 170.41 980.78 Z" />
<path fill="#87963b" d=" M 399.69 1020.22 C 459.74 1019.37 519.40 1005.41 574.17 980.92 C 574.14 984.44 574.61 987.99 574.14 991.51 C 569.70 1008.77 563.45 1025.70 553.82 1040.79 C 537.18 1068.08 511.70 1089.57 482.56 1102.50 C 456.52 1114.19 428.02 1119.45 399.63 1120.91 C 399.67 1087.34 399.55 1053.78 399.69 1020.22 Z" />
<path fill="#6e781f" d=" M 553.82 1040.79 C 563.45 1025.70 569.70 1008.77 574.14 991.51 C 574.26 1039.77 563.42 1087.14 552.44 1133.88 C 548.71 1149.42 545.06 1164.99 541.34 1180.54 C 508.40 1180.55 475.45 1180.58 442.51 1180.52 C 431.65 1169.30 419.08 1159.81 405.73 1151.74 C 424.44 1149.51 442.89 1144.39 459.70 1135.78 C 467.66 1131.66 475.51 1127.09 482.18 1121.04 C 456.40 1133.54 428.03 1139.82 399.64 1142.58 C 399.62 1135.35 399.62 1128.13 399.63 1120.91 C 428.02 1119.45 456.52 1114.19 482.56 1102.50 C 511.70 1089.57 537.18 1068.08 553.82 1040.79 Z" />
<path fill="#6e781f" d=" M 170.64 993.27 C 172.46 998.25 173.94 1003.34 175.51 1008.41 C 183.89 1032.84 198.18 1055.29 217.13 1072.88 C 235.25 1089.92 257.55 1102.18 281.16 1109.79 C 301.85 1116.47 323.51 1119.95 345.22 1120.83 C 345.22 1128.07 345.23 1135.32 345.21 1142.57 C 316.89 1139.93 288.66 1133.58 262.89 1121.29 C 268.62 1126.70 275.53 1130.67 282.39 1134.45 C 299.72 1143.80 318.92 1149.22 338.40 1151.74 C 325.59 1160.28 312.84 1169.17 302.30 1180.50 C 269.32 1180.63 236.34 1180.50 203.36 1180.57 C 191.19 1128.02 176.56 1075.72 171.77 1021.81 C 171.17 1012.31 170.20 1002.80 170.64 993.27 Z" />
<path fill="#753417" d=" M 90.58 1004.72 C 96.03 1002.26 102.22 1003.92 107.70 1005.45 C 124.98 1011.03 140.91 1019.99 158.04 1025.98 C 159.37 1026.56 160.98 1026.85 161.98 1028.00 C 164.08 1050.08 167.99 1071.94 172.46 1093.65 C 159.48 1088.02 146.93 1081.40 134.77 1074.16 C 121.39 1066.01 108.25 1057.03 97.59 1045.42 C 90.85 1037.82 84.76 1028.57 84.73 1018.04 C 84.76 1013.16 85.79 1007.18 90.58 1004.72 Z" />
<path fill="#87963b" d=" M 350.56 1020.45 C 365.12 1020.48 379.69 1020.33 394.25 1020.53 C 394.17 1054.07 394.25 1087.62 394.21 1121.17 C 379.66 1121.33 365.12 1121.21 350.58 1121.23 C 350.55 1087.64 350.58 1054.05 350.56 1020.45 Z" />
<path fill="#6e781f" d=" M 350.58 1121.23 C 365.12 1121.21 379.66 1121.33 394.21 1121.17 C 394.01 1128.37 394.61 1135.63 393.94 1142.80 C 388.70 1144.00 383.29 1143.32 377.97 1143.48 C 368.85 1143.34 359.71 1143.83 350.61 1143.11 C 350.53 1135.81 350.57 1128.52 350.58 1121.23 Z" />
<path fill="#753417" d=" M 205.13 1188.41 C 234.98 1188.35 264.82 1188.32 294.66 1188.43 C 285.69 1199.74 277.56 1211.84 272.02 1225.23 C 262.40 1247.81 258.73 1272.88 261.39 1297.28 C 251.96 1300.78 241.81 1299.60 231.99 1299.62 C 198.11 1299.57 164.24 1299.66 130.36 1299.58 C 130.35 1293.19 131.03 1286.80 132.63 1280.62 C 133.11 1278.30 134.06 1275.87 133.36 1273.52 C 131.73 1270.71 126.90 1270.85 126.01 1274.19 C 124.46 1279.26 123.69 1284.54 122.94 1289.78 C 122.58 1293.04 122.45 1296.32 122.30 1299.61 C 114.74 1300.11 107.31 1298.30 100.40 1295.37 C 100.90 1286.30 104.50 1277.40 110.78 1270.80 C 120.83 1259.89 135.03 1254.07 149.03 1250.13 C 171.05 1244.12 194.02 1242.23 216.78 1242.65 C 213.19 1224.51 209.10 1206.47 205.13 1188.41 Z" />
<path fill="#753417" d=" M 449.88 1188.47 C 479.78 1188.29 509.69 1188.33 539.60 1188.44 C 535.54 1206.47 531.31 1224.48 528.02 1242.67 C 552.91 1242.23 578.13 1244.45 601.95 1252.02 C 614.80 1256.42 627.81 1262.68 636.32 1273.66 C 641.06 1279.84 643.89 1287.48 644.15 1295.29 C 637.47 1298.46 630.13 1300.00 622.74 1299.63 C 622.47 1297.98 622.22 1296.39 622.02 1294.78 C 621.60 1288.14 620.72 1281.51 618.92 1275.10 C 618.54 1273.89 618.13 1272.55 616.90 1272.00 C 614.34 1270.29 610.24 1272.84 611.19 1275.98 C 612.63 1283.75 614.56 1291.52 614.32 1299.50 C 575.55 1299.83 536.78 1299.37 498.01 1299.76 C 493.12 1299.89 488.27 1299.05 483.72 1297.26 C 483.70 1295.81 483.70 1294.38 483.71 1292.96 C 485.42 1269.65 481.64 1245.87 472.28 1224.43 C 466.69 1211.38 458.89 1199.39 449.88 1188.47 Z" />
<path fill="#3b3021" d=" M 122.30 1299.61 C 122.45 1296.32 122.58 1293.04 122.94 1289.78 C 122.24 1297.87 122.41 1306.19 125.58 1313.80 C 118.58 1313.68 111.02 1313.94 104.80 1310.21 C 99.95 1306.98 100.51 1300.46 100.40 1295.37 C 107.31 1298.30 114.74 1300.11 122.30 1299.61 Z" />
<path fill="#3b3021" d=" M 482.70 1307.03 C 482.01 1302.33 483.24 1297.62 483.71 1292.96 C 483.70 1294.38 483.70 1295.81 483.72 1297.26 C 488.27 1299.05 493.12 1299.89 498.01 1299.76 C 536.78 1299.37 575.55 1299.83 614.32 1299.50 C 613.84 1304.00 613.12 1308.71 610.35 1312.46 C 609.56 1314.14 607.44 1313.62 605.95 1313.82 C 569.62 1313.75 533.28 1313.82 496.95 1313.79 C 491.69 1313.72 484.63 1312.82 482.70 1307.03 Z" />
<path fill="#3b3021" d=" M 622.02 1294.78 C 622.22 1296.39 622.47 1297.98 622.74 1299.63 C 630.13 1300.00 637.47 1298.46 644.15 1295.29 C 644.30 1300.37 644.64 1306.70 640.01 1310.06 C 633.87 1314.10 626.13 1313.60 619.11 1313.78 C 621.61 1307.75 622.06 1301.23 622.02 1294.78 Z" />
<path fill="#3b3021" d=" M 231.99 1299.62 C 241.81 1299.60 251.96 1300.78 261.39 1297.28 C 261.83 1301.49 263.54 1306.64 260.11 1310.08 C 256.08 1313.88 250.17 1313.80 244.99 1313.82 C 208.41 1313.69 171.84 1313.92 135.26 1313.71 C 132.00 1309.70 130.70 1304.64 130.36 1299.58 C 164.24 1299.66 198.11 1299.57 231.99 1299.62 Z" />
<path fill="#1D1D1D" d=" M 272.28 1300.09 C 286.85 1300.15 301.42 1299.88 316.00 1299.75 C 368.13 1299.81 420.26 1299.53 472.38 1300.15 C 471.61 1305.63 472.17 1311.72 475.94 1316.06 C 481.24 1322.50 490.05 1324.25 497.98 1324.34 C 534.99 1324.32 571.99 1324.33 609.00 1324.33 C 618.72 1324.27 628.66 1324.84 638.13 1322.24 C 644.44 1320.53 650.18 1316.27 652.65 1310.08 C 660.10 1311.76 667.71 1312.45 675.21 1313.84 C 681.79 1315.15 688.92 1316.20 693.92 1321.14 C 691.65 1323.31 689.06 1325.27 685.93 1325.97 C 670.97 1330.05 655.42 1331.21 640.08 1333.09 C 589.92 1338.10 539.51 1339.84 489.15 1341.40 C 477.54 1342.24 465.84 1341.16 454.30 1343.00 L 290.67 1343.00 C 278.20 1341.12 265.57 1342.24 253.04 1341.28 C 229.00 1340.96 205.01 1339.39 180.99 1338.67 C 145.78 1336.54 110.48 1334.74 75.57 1329.45 C 66.93 1327.64 57.16 1327.29 50.32 1321.00 C 55.55 1316.00 62.96 1315.16 69.72 1313.78 C 77.05 1312.18 84.81 1312.38 91.75 1309.22 C 93.58 1314.27 97.47 1318.52 102.40 1320.69 C 109.16 1323.72 116.71 1324.12 124.01 1324.33 C 165.01 1324.33 206.01 1324.33 247.00 1324.33 C 254.46 1324.16 262.62 1322.59 267.96 1316.94 C 272.22 1312.50 273.26 1305.98 272.28 1300.09 Z" />
</svg>
